<?xml version="1.0" standalone="no"?>
<!DOCTYPE svg PUBLIC "-//W3C//DTD SVG 20010904//EN"
 "http://www.w3.org/TR/2001/REC-SVG-20010904/DTD/svg10.dtd">
<svg version="1.0" xmlns="http://www.w3.org/2000/svg"
 width="1024.000000pt" height="1024.000000pt" viewBox="0 0 1024.000000 1024.000000"
 preserveAspectRatio="xMidYMid meet">
<metadata>
Created by potrace 1.14, written by Peter Selinger 2001-2017
</metadata>
<g transform="translate(0.000000,1024.000000) scale(0.100000,-0.100000)"
fill="#000000" stroke="none">
<path d="M1379 10236 c-2 -2 -49 -6 -104 -9 -404 -24 -642 -117 -880 -344
-197 -188 -329 -443 -360 -698 -4 -27 -8 -61 -11 -75 -2 -14 -8 -77 -12 -140
-10 -156 -9 -7578 1 -7710 20 -258 55 -415 125 -555 158 -317 453 -561 777
-644 75 -19 200 -37 340 -48 126 -10 7561 -11 7710 -1 61 5 121 10 135 12 14
3 51 7 84 11 308 33 615 221 812 496 58 81 61 86 109 186 41 84 76 191 89 268
17 97 28 194 34 295 9 155 9 7544 -1 7690 -6 101 -24 241 -42 335 -10 51 -56
177 -88 240 -135 271 -409 515 -676 605 -81 27 -225 57 -316 65 -38 4 -83 9
-100 13 -32 6 -7619 14 -7626 8z"/>
</g>
</svg>
